<?xml version="1.0" encoding="UTF-8"?>
<svg id="Layer_1" data-name="Layer 1" xmlns="http://www.w3.org/2000/svg" viewBox="0 0 873.43 267.87">
  <defs>
    <style>
      .cls-1 {
        fill: #040304;
      }

      .cls-1, .cls-2, .cls-3, .cls-4 {
        stroke-width: 0px;
      }

      .cls-5 {
        fill: #231f20;
        font-family: Poppins-Bold, Poppins;
        font-size: 98.81px;
        font-weight: 700;
      }

      .cls-2 {
        fill: #ba2026;
      }

      .cls-3 {
        fill: #fff;
      }

      .cls-4 {
        fill: #050606;
      }
    </style>
  </defs>
  <path class="cls-2" d="M236.78,95.05c-3.69-3.71-7.62-7.15-11.2-10.99-1.51-1.62-2.16-4.02-4.32-4.99-2.4-1.09-4.27-2.92-5.59-4.99-1.83-2.86-4.36-5.08-6.8-7.09-6.44-5.33-11.55-11.96-17.86-17.39-3.06-2.63-5.26-6.26-8.35-8.83-5.96-4.95-10.71-11.07-16.6-16.11-4.71-4.04-8.38-9.26-13.24-13.31-3.17-2.65-5.75-5.99-8.86-8.77-3-2.68-15.14-3.58-18.35-1.2-.15.12-.3.24-.44.38-1.99,1.86-4.03,3.66-5.95,5.59-11.25,11.26-22.47,22.55-33.72,33.82-17.71,17.73-35.62,35.26-53.08,53.22-9.99,10.28-21.19,19.41-29.8,31.05-1.49,2-2.71,3.68-2.31,6.38-1.29,3.45,1.8,5.12,3.35,7.59,3.34,5.31,8.27,9.17,12.35,13.8,3.47,3.94,8.09,6.88,11.11,11.37.82,1.22,2.06,2.06,3.36,2.75,1.22.65,2.21,1.55,3.04,2.66,2.05,2.73,3.13,2.85,5.49.27,1.66-1.82,3.61-2.79,5.93-3.43,3.48-.95,6.21-3.41,9.18-5.28,1.78-1.12,3.27-2.64,5.44-3.1,1.09-.23,1.94-.86,2.55-1.8.53-.84,1.15-1.63,2.16-1.86,4.22-.95,6.82-5.16,11.31-5.57.33-.03.67-.4.92-.69,1.52-1.8,3.51-2.69,5.81-3.01.89-.12,1.6-.63,2.25-1.26,3.64-3.56,8.72-4.66,13.1-6.61,4.87-2.16,9.37-6.01,15.21-5.86.23.01.56-.24.71-.47,1.76-2.71,4.5-3.09,7.4-3.26.83-.05,1.92-.29,2.4-.85,2.24-2.68,5.3-2.98,8.41-3.3,1.26-.13,2.65-.25,3.59-1.09,2.97-2.67,6.68-2.93,10.32-3.44,1.26-.17,2.61-.13,3.56-1.08,2.74-2.7,6.26-3.36,9.84-3.83,1.28-.16,2.52-.39,3.52-1.23,1.81-1.52,3.94-1.97,6.23-2.11,2.51-.16,5.08-.24,7.23-1.87,2.1-1.59,4.53-2.17,7.11-2.21,4.47-.06,9,.2,12.81-2.86.42-.33,1.1-.45,1.66-.47,9.04-.26,17.85-2.98,26.96-2.43,3.74.23,7.33-.87,10.9-1.76,3.33-.84,3.64-2.09,1.26-4.48ZM101.1,84.46c-1.1-.14-1.23-1.07-1.2-1.96.01-.69.18-1.46,1.08-1.35,1.09.14,1.15,1.1,1.23,1.93-.08.74-.21,1.49-1.11,1.38Z"/>
  <path class="cls-2" d="M271.89,133.56c0,.39-.03.78,0,1.17.62,6.08-2.37,10.48-6.47,14.5-5.62,5.53-11.36,10.93-16.75,16.71-3.13,3.36-6.94,6.14-10,9.62-5.02,5.72-10.96,10.54-15.91,16.34-2.92,3.43-6.46,6.33-9.7,9.48-3.66,3.55-7.35,7.08-10.96,10.68-5.05,5.03-10.18,10.01-15.04,15.22-5.39,5.77-11.41,10.9-16.58,16.91-2.93,3.42-6.5,6.29-9.75,9.43-2.49,2.4-4.88,4.91-7.42,7.26-4.69,4.35-9.68,8.08-16.68,6.66-.94-.19-2.02-.3-2.75-.84-4.47-3.3-9.04-6.43-12.77-10.7-3.28-3.75-7.24-6.9-10.82-10.4-1.99-1.95-3.88-4.01-5.68-6.13-.6-.7-1.25-1.9-1.05-2.64,1.14-4.13.09-8.8,3.03-12.48.06-.08.16-.14.18-.23,1.22-5.55,5.6-9.88,6.17-15.67.23-2.31.78-4.38,2.64-5.94.92-.77,1.49-1.79,1.68-2.99.28-1.72,1-3.09,2.56-4.03.55-.33,1.16-.95,1.27-1.53.73-3.81,3.93-6.17,5.82-9.22,1.48-2.39,3.34-5.27,6.12-7.01,1.86-1.16,2.71-3.41,4.2-5.06,4.72-5.23,9.93-9.97,15.12-14.65,2.29-2.07,4.95-4.2,7.23-6.28,2.88-2.62,6.62-3.85,9.23-6.82,1.73-1.96,4.47-3.22,6.82-4.21,3.86-1.63,7.2-4.16,11.07-5.68,1.2-.47,2.25-1.12,3.1-2.1.38-.44.78-1.09,1.26-1.18,4.46-.82,7.82-3.95,11.88-5.56.09-.04.22,0,.28-.06,4.04-3.57,9.79-3.67,14.01-6.87.38-.29.8-.79,1.2-.78,6.34.08,10.86-5.5,17.23-5.44,2.76.03,5.12-1.72,7.67-2.66,7.99-2.95,9.08-2.87,14.56,3.45,3.3,3.81,7.14,7.07,10.63,10.66,2.78,2.85,3.4,5.6,3.36,9.04Z"/>
  <path class="cls-4" d="M69.41,204.13c.02-1.1.19-2.25,1.06-2.93,5.68-4.47,10.29-10.07,16.01-14.55,6.21-4.86,12.79-9.37,17.97-15.47.25-.29.57-.66.9-.71,3.57-.6,6.15-2.97,9.09-4.79,6.15-3.8,12.63-7.05,18.58-11.19,1.21-.84,2.45-1.61,3.86-1.98,1.74-.46,3.24-1.26,4.48-2.58.46-.49,1.03-1.04,1.64-1.18,4.8-1.13,8.34-4.86,13.01-6.21,1.83-.53,3.13-1.94,4.85-2.58.64-.24,1.51-.38,1.82.35.39.94-.61,1.12-1.19,1.25-1.57.35-2.16,1.61-3.14,2.67-2.04,2.2-4.56,4-7.03,5.77-3.29,2.36-6.54,4.75-9.48,7.54-2.31,2.19-4.58,4.41-6.96,6.52-2.03,1.8-3.92,3.87-5.42,5.98-2.06,2.91-4.4,5.67-6.58,8.41-1.96,2.46-3.5,5.42-6.16,7.42-2.18,1.64-3.13,4.48-4.33,6.72-2.02,3.76-5.53,6.68-6.43,11.06-.12.56-.25,1.38-.64,1.58-3.36,1.77-3.24,6.14-6.22,8.2-.9.62-.93,1.87-1.03,2.95-.13,1.48-.45,2.95-1.44,4.06-1.36,1.52-2.25,3.1-2.01,5.23.1.93-.39,1.71-1.35,2.02-.97.31-1.65-.21-2.29-.88-4.6-4.81-9.16-9.65-13.84-14.39-1.9-1.92-4.01-3.63-6.09-5.35-.96-.79-1.64-1.63-1.63-2.92Z"/>
  <path class="cls-1" d="M54.62,189.26c-.92.04-1.81-.17-2.32-.96-1.87-2.88-4.62-4.91-6.99-7.3-.91-.91-1.07-1.74-.09-2.74,2.49-2.54,5.11-5.03,7.77-7.27,2.28-1.92,5.42-3.05,7.96-5,4.12-3.15,9.22-4.77,13.19-8.21.55-.48,1.39-.65,2.12-.88.74-.23,1.77-.09,2.23-.55,3.06-3.07,7.56-3.63,10.8-6.34.15-.12.26-.36.42-.39,5.05-.98,8.7-5.2,13.86-5.95,1.04-.15,2.48-.22,2.99-.89,2.09-2.79,4.99-3.42,8.14-3.67.37-.03.87-.17,1.06-.43,2.5-3.38,6.35-3.31,9.92-3.96.19-.03.4-.07.55-.18,3.82-2.96,8.29-3.99,12.96-4.49.37-.04.84-.18,1.06-.45,2.95-3.68,7.33-2.98,11.24-3.69.73-.13,1.67-.54,2.04.44.41,1.08-.52,1.52-1.32,1.91-.26.13-.55.22-.83.27-6.8,1.21-12.41,5.12-18.52,7.94-3.94,1.82-7.8,3.88-11.63,5.85-6.15,3.15-12.65,5.9-17.95,10.54-2.09,1.83-4.71,2.63-7,4.08-5.38,3.41-9.72,8.26-15.58,10.97-.85.39-1.61,1.09-2.27,1.79-5.31,5.7-11.7,10.11-17.75,14.92-1,.79-1.97,1.55-2.68,2.63-.79,1.2-1.92,1.9-3.38,2.02Z"/>
  <g>
    <path class="cls-3" d="M135.01,23.6c-16.54,0-30,13.46-30,30s13.46,30,30,30,30-13.46,30-30-13.46-30-30-30ZM135.01,81.32c-15.28,0-27.71-12.43-27.71-27.71s12.43-27.72,27.71-27.72,27.71,12.43,27.71,27.72-12.43,27.71-27.71,27.71Z"/>
    <path class="cls-3" d="M135.1,43.81c-13.81,0-24.62,5.33-24.62,12.12,0,5.03,5.76,9.32,15.02,11.19,3.04.62,6.27.93,9.61.93,4.84,0,9.52-.67,13.53-1.93,7.05-2.22,11.1-5.93,11.1-10.18,0-6.8-10.82-12.12-24.62-12.12ZM149.84,65.36l-.05.02c-.41.15-.83.28-1.26.42-3.97,1.26-8.62,1.92-13.43,1.92-3.32,0-6.53-.31-9.54-.92-9.1-1.84-14.75-6-14.75-10.87,0-6.61,10.67-11.79,24.29-11.79s24.29,5.18,24.29,11.79c0,3.83-3.46,7.23-9.55,9.42ZM135.1,46.43c-11.93,0-22,4.35-22,9.5,0,2.86,3.27,5.63,8.49,7.44,1.35.47,2.84.87,4.43,1.19.07.01.14.03.21.04-.18-.15-.36-.3-.54-.45-1.66-.35-3.21-.8-4.59-1.31-4.73-1.75-7.67-4.3-7.67-6.91,0-4.34,8.9-9.17,21.67-9.17s21.67,4.83,21.67,9.17c0,2.67-3.16,5.36-8.3,7.13-.24.08-.48.16-.73.24-.5.16-1.01.31-1.53.44.08.1.15.19.21.29.48-.13.96-.27,1.42-.41.28-.09.55-.18.82-.27,5.24-1.82,8.45-4.61,8.45-7.41,0-5.15-10.08-9.5-22-9.5Z"/>
    <g>
      <path class="cls-3" d="M148.47,63.06c-.24.08-.48.16-.73.24-.5.16-1.01.31-1.53.44.08.1.15.19.21.29.48-.13.96-.27,1.42-.41.28-.09.55-.18.82-.27-.06-.1-.12-.19-.19-.28ZM117.57,51.65c-1.71,2.77-.3,6.97,3.53,11.19.16.17.32.35.49.53,1.35.47,2.84.87,4.43,1.19.07.01.14.03.21.04-.18-.15-.36-.3-.54-.45-5.01-4.22-7.66-8.99-6.22-11.33.85-1.37,3.14-1.91,6.28-1.47,3.26.45,7.02,1.87,10.67,4l1.53-1.69c-4.03-2.41-8.24-4.02-11.89-4.52-4.12-.57-7.14.32-8.49,2.52Z"/>
      <path class="cls-3" d="M135.1,44.14c-13.62,0-24.29,5.18-24.29,11.79,0,4.87,5.65,9.03,14.75,10.87,3.02.61,6.23.92,9.54.92,4.81,0,9.45-.66,13.43-1.92.43-.14.85-.27,1.26-.42l.05-.02c6.09-2.2,9.55-5.6,9.55-9.42,0-6.61-10.67-11.79-24.29-11.79ZM148.66,63.35c-.27.1-.54.19-.82.27-.46.15-.93.28-1.42.41-.06-.1-.13-.19-.21-.29-3.37.89-7.17,1.35-11.11,1.35-3.14,0-6.18-.29-9.02-.86-.13-.03-.26-.05-.39-.08.17.15.35.3.54.45-.07-.01-.14-.03-.21-.04-1.59-.32-3.07-.72-4.43-1.19-5.22-1.8-8.49-4.58-8.49-7.44,0-5.15,10.08-9.5,22-9.5s22,4.35,22,9.5c0,2.8-3.21,5.6-8.45,7.41Z"/>
    </g>
  </g>
  <text class="cls-5" transform="translate(297.06 167.49)"><tspan x="0" y="0">Relsof Tims</tspan></text>
</svg>